<svg width="112" height="24"
    xmlns="http://www.w3.org/2000/svg"
    xmlns:xlink="http://www.w3.org/1999/xlink">
    <g transform="translate(0 -18)" fill="none" fill-rule="evenodd">
        <g fill="#FFF">
            <path d="M49.816 24.606v8.386c0 1.318.413 1.985 1.874 1.985s1.89-.667 1.89-1.985v-8.386h2.573v8.465c0 2.7-1.096 4.129-4.463 4.129-3.366 0-4.446-1.43-4.446-4.129v-8.465h2.572zm13.309-.206c2.953 0 4.51 1.239 4.51 4.335v.572h-2.573c0-1.7-.365-2.684-1.795-2.684h-.142c-1.7 0-2.128 1.382-2.128 3.86v.635c0 2.477.412 3.859 2.223 3.859h.143c.73 0 1.302-.207 1.683-.477v-1.985H63.41v-2.223h4.209v5.463c-.921.762-2.176 1.445-4.336 1.445-3.366 0-4.907-1.795-4.907-6.082v-.636c0-4.287 1.54-6.082 4.749-6.082zm14.42 4.002c2.461 0 3.525 1.874 3.525 4.208v.636h-5.955c.047 1.842.825 2.985 2.509 2.985 1.683 0 2.382-1.032 2.382-1.937h1.064v.063c0 1.303-1.08 2.811-3.446 2.811-2.541 0-3.637-1.874-3.637-4.208v-.35c0-2.334 1.096-4.208 3.557-4.208zm19.946-3.97c2.842 0 4.256 1.763 4.256 6.05v.636c0 4.287-1.414 6.05-4.256 6.05-2.827 0-4.24-1.763-4.24-6.05v-.636c0-4.287 1.413-6.05 4.24-6.05zm-58.918.174v4.955h3.605v-4.955h2.572v12.388h-2.572v-5.21h-3.605v5.21H36V24.606h2.573zm45.244 0h3.43c1.763 0 3.796.667 3.796 3.526v.318c0 2.842-2.033 3.51-3.795 3.51H84.96v5.034h-1.144V24.606zm20.804 0h3.43c1.763 0 3.796.667 3.796 3.526v.318c0 2.842-2.033 3.51-3.795 3.51h-2.287v5.034h-1.144V24.606zm-7.067.858h-.11c-2.081 0-3.018 1.493-3.018 5.018v.636c0 3.443.894 4.947 2.874 5.016l.254.002c2.08 0 3.018-1.493 3.018-5.018v-.636c0-3.525-.937-5.018-3.018-5.018zM77.53 29.339c-1.589 0-2.367 1.16-2.414 2.986h4.827c-.063-1.827-.81-2.986-2.413-2.986zm9.848-3.7h-2.416v5.288h2.318c1.064 0 2.589-.397 2.589-2.525v-.238c0-2.064-1.434-2.5-2.49-2.524zm20.804 0h-2.416v5.288h2.318c1.064 0 2.589-.397 2.589-2.525v-.238c0-2.064-1.434-2.5-2.49-2.524zM12 18c6.627 0 12 5.373 12 12s-5.373 12-12 12S0 36.627 0 30s5.373-12 12-12zM8.113 28.99a4.777 4.777 0 100 9.556 4.777 4.777 0 000-9.555zm4.613-5.834a2.806 2.806 0 100 5.613 2.806 2.806 0 000-5.613zm5.371-.106a1.286 1.286 0 100 2.571 1.286 1.286 0 000-2.57z"/>
        </g>
    </g>
</svg>